<svg id="activities" xmlns="http://www.w3.org/2000/svg" width="90.47" height="183" viewBox="0 0 90.47 183">
  <defs>
    <style>
      .cls-1 {
        fill: none;
      }

      .cls-1, .cls-3 {
        stroke: #4bbf60;
        stroke-width: 1px;
      }

      .cls-1, .cls-2, .cls-3, .cls-4 {
        fill-rule: evenodd;
      }

      .cls-2, .cls-3 {
        fill: #fff;
      }

      .cls-4 {
        fill: #4bbf60;
      }
    </style>
  </defs>
  <g id="activities-2" data-name="activities">
    <path id="Ellipse_1_copy_4" data-name="Ellipse 1 copy 4" class="cls-1" d="M1117.26,1981a44.5,44.5,0,1,1-44.74,44.5A44.618,44.618,0,0,1,1117.26,1981Z" transform="translate(-1072.03 -1887.5)"/>
    <path id="hy" class="cls-2" d="M1120.9,2018.72a0.629,0.629,0,0,1,.75.67,1.393,1.393,0,0,1-.19.66l-7,12.04a2.665,2.665,0,0,1-.94.95,2.251,2.251,0,0,1-1.16.39h-6.73a0.648,0.648,0,0,1-.78-0.67,1.315,1.315,0,0,1,.2-0.67l6.21-10.7a1.42,1.42,0,0,0,.2-0.67,0.636,0.636,0,0,0-.76-0.67,2.2,2.2,0,0,0-1.17.39,2.969,2.969,0,0,0-.95.95l-6.22,10.7a2.665,2.665,0,0,1-.94.95,2.251,2.251,0,0,1-1.16.39h-6.72a0.652,0.652,0,0,1-.79-0.67,1.42,1.42,0,0,1,.2-0.67l13.02-22.4a1.147,1.147,0,0,1,.87-0.72,0.482,0.482,0,0,1,.42.25l3.72,6.29a1.5,1.5,0,0,1,.17.76,2.478,2.478,0,0,1-.34,1.28,1.014,1.014,0,0,0-.16.53,0.672,0.672,0,0,0,.84.64h9.41Zm5.71,17.91a1.3,1.3,0,0,1-.2-0.75,2.551,2.551,0,0,1,.34-1.28,1.091,1.091,0,0,0,.17-0.53,0.655,0.655,0,0,0-.82-0.64h-9.4a0.652,0.652,0,0,1-.79-0.67,1.42,1.42,0,0,1,.2-0.67l7-12.04a2.563,2.563,0,0,1,.94-0.94,2.261,2.261,0,0,1,1.19-.39h6.72a0.629,0.629,0,0,1,.75.67,1.393,1.393,0,0,1-.19.66l-6.22,10.7a1.453,1.453,0,0,0-.2.67,0.636,0.636,0,0,0,.76.67,2.289,2.289,0,0,0,1.19-.39,2.665,2.665,0,0,0,.94-0.95l6.21-10.7a2.642,2.642,0,0,1,.94-0.94,2.289,2.289,0,0,1,1.19-.39h6.73a0.629,0.629,0,0,1,.75.67,1.393,1.393,0,0,1-.19.66l-13,22.4a1.155,1.155,0,0,1-.89.72,0.482,0.482,0,0,1-.42-0.25h0Z" transform="translate(-1072.03 -1887.5)"/>
  </g>
  <g id="activities-active">
    <path id="Ellipse_1_copy_4-2" data-name="Ellipse 1 copy 4" class="cls-3" d="M1117.26,1888a44.5,44.5,0,1,1-44.74,44.5A44.618,44.618,0,0,1,1117.26,1888Z" transform="translate(-1072.03 -1887.5)"/>
    <path id="hy-2" data-name="hy" class="cls-4" d="M1120.9,1925.72a0.629,0.629,0,0,1,.75.67,1.393,1.393,0,0,1-.19.66l-7,12.04a2.665,2.665,0,0,1-.94.95,2.251,2.251,0,0,1-1.16.39h-6.73a0.648,0.648,0,0,1-.78-0.67,1.315,1.315,0,0,1,.2-0.67l6.21-10.7a1.42,1.42,0,0,0,.2-0.67,0.636,0.636,0,0,0-.76-0.67,2.2,2.2,0,0,0-1.17.39,2.969,2.969,0,0,0-.95.95l-6.22,10.7a2.665,2.665,0,0,1-.94.95,2.251,2.251,0,0,1-1.16.39h-6.72a0.652,0.652,0,0,1-.79-0.67,1.42,1.42,0,0,1,.2-0.67l13.02-22.4a1.147,1.147,0,0,1,.87-0.72,0.482,0.482,0,0,1,.42.25l3.72,6.29a1.5,1.5,0,0,1,.17.76,2.478,2.478,0,0,1-.34,1.28,1.014,1.014,0,0,0-.16.53,0.672,0.672,0,0,0,.84.64h9.41Zm5.71,17.91a1.3,1.3,0,0,1-.2-0.75,2.551,2.551,0,0,1,.34-1.28,1.091,1.091,0,0,0,.17-0.53,0.655,0.655,0,0,0-.82-0.64h-9.4a0.652,0.652,0,0,1-.79-0.67,1.42,1.42,0,0,1,.2-0.67l7-12.04a2.563,2.563,0,0,1,.94-0.94,2.261,2.261,0,0,1,1.19-.39h6.72a0.629,0.629,0,0,1,.75.67,1.393,1.393,0,0,1-.19.66l-6.22,10.7a1.453,1.453,0,0,0-.2.67,0.636,0.636,0,0,0,.76.67,2.289,2.289,0,0,0,1.19-.39,2.665,2.665,0,0,0,.94-0.95l6.21-10.7a2.642,2.642,0,0,1,.94-0.94,2.289,2.289,0,0,1,1.19-.39h6.73a0.629,0.629,0,0,1,.75.67,1.393,1.393,0,0,1-.19.66l-13,22.4a1.155,1.155,0,0,1-.89.72,0.482,0.482,0,0,1-.42-0.25h0Z" transform="translate(-1072.03 -1887.5)"/>
  </g>
</svg>
