<svg id="groups" xmlns="http://www.w3.org/2000/svg" width="90.469" height="183" viewBox="0 0 90.469 183">
  <defs>
    <style>
      .cls-1 {
        fill: none;
      }

      .cls-1, .cls-3 {
        stroke: #4bbf60;
        stroke-width: 1px;
      }

      .cls-1, .cls-2, .cls-3, .cls-4 {
        fill-rule: evenodd;
      }

      .cls-2, .cls-3 {
        fill: #fff;
      }

      .cls-4 {
        fill: #4bbf60;
      }
    </style>
  </defs>
  <g id="groups-2" data-name="groups">
    <path id="Ellipse_1_copy_3" data-name="Ellipse 1 copy 3" class="cls-1" d="M866.4,2045a44.5,44.5,0,1,1-44.738,44.5A44.617,44.617,0,0,1,866.4,2045Z" transform="translate(-821.156 -1951.5)"/>
    <path id="Shape_1_copy" data-name="Shape 1 copy" class="cls-2" d="M895.07,2095.33a42.1,42.1,0,0,0-7.535-4.87,0.233,0.233,0,0,1-.133-0.22v-5.16a2.39,2.39,0,0,0,1.063-2.01v-5.35a4.8,4.8,0,0,0-4.77-4.81H882.56a4.8,4.8,0,0,0-4.77,4.81v5.35a2.4,2.4,0,0,0,1.063,2.01v5.16c0,0.04-.012.06-0.012,0.09,1,0.69,2.053,1.47,3.079,2.32a5.238,5.238,0,0,1,1.884,4.05v4.3H896v-3.67A2.6,2.6,0,0,0,895.07,2095.33Zm-14.538-.98a48.5,48.5,0,0,0-8.864-5.74,0.293,0.293,0,0,1-.157-0.26v-6.06a2.818,2.818,0,0,0,1.256-2.35v-6.29a5.629,5.629,0,0,0-5.6-5.65h-1.328a5.629,5.629,0,0,0-5.6,5.65v6.28a2.792,2.792,0,0,0,1.256,2.35v6.06a0.267,0.267,0,0,1-.157.25,49.4,49.4,0,0,0-8.864,5.74,3.048,3.048,0,0,0-1.1,2.36v4.3h30.26v-4.3A3.008,3.008,0,0,0,880.532,2094.35Zm-26.385-4.11v-5.16a2.39,2.39,0,0,0,1.063-2.01v-5.35a4.8,4.8,0,0,0-4.77-4.81h-1.135a4.8,4.8,0,0,0-4.77,4.81v5.35a2.4,2.4,0,0,0,1.063,2.01v5.16a0.255,0.255,0,0,1-.133.22,41.229,41.229,0,0,0-7.535,4.87,2.6,2.6,0,0,0-.93,2V2101h12.2v-4.3a5.268,5.268,0,0,1,1.884-4.05c1.026-.85,2.077-1.63,3.079-2.32C854.159,2090.3,854.147,2090.28,854.147,2090.24Z" transform="translate(-821.156 -1951.5)"/>
  </g>
  <g id="groups-active">
    <path id="Ellipse_1_copy_3-2" data-name="Ellipse 1 copy 3" class="cls-3" d="M866.4,1952a44.5,44.5,0,1,1-44.738,44.5A44.617,44.617,0,0,1,866.4,1952Z" transform="translate(-821.156 -1951.5)"/>
    <path class="cls-4" d="M895.07,2005.33a42.1,42.1,0,0,0-7.535-4.87,0.233,0.233,0,0,1-.133-0.22v-5.16a2.39,2.39,0,0,0,1.063-2.01v-5.35a4.8,4.8,0,0,0-4.77-4.81H882.56a4.8,4.8,0,0,0-4.77,4.81v5.35a2.4,2.4,0,0,0,1.063,2.01v5.16c0,0.04-.012.06-0.012,0.09,1,0.69,2.053,1.47,3.079,2.32a5.238,5.238,0,0,1,1.884,4.05v4.3H896v-3.67A2.6,2.6,0,0,0,895.07,2005.33Zm-14.538-.98a48.5,48.5,0,0,0-8.864-5.74,0.293,0.293,0,0,1-.157-0.26v-6.06a2.818,2.818,0,0,0,1.256-2.35v-6.29a5.629,5.629,0,0,0-5.6-5.65h-1.328a5.629,5.629,0,0,0-5.6,5.65v6.28a2.792,2.792,0,0,0,1.256,2.35v6.06a0.267,0.267,0,0,1-.157.25,49.4,49.4,0,0,0-8.864,5.74,3.048,3.048,0,0,0-1.1,2.36v4.3h30.26v-4.3A3.008,3.008,0,0,0,880.532,2004.35Zm-26.385-4.11v-5.16a2.39,2.39,0,0,0,1.063-2.01v-5.35a4.8,4.8,0,0,0-4.77-4.81h-1.135a4.8,4.8,0,0,0-4.77,4.81v5.35a2.4,2.4,0,0,0,1.063,2.01v5.16a0.255,0.255,0,0,1-.133.22,41.229,41.229,0,0,0-7.535,4.87,2.6,2.6,0,0,0-.93,2V2011h12.2v-4.3a5.268,5.268,0,0,1,1.884-4.05c1.026-.85,2.077-1.63,3.079-2.32C854.159,2000.3,854.147,2000.28,854.147,2000.24Z" transform="translate(-821.156 -1951.5)"/>
  </g>
</svg>
