<?xml version="1.0" encoding="UTF-8"?>
<svg width="91px" height="184px" viewBox="0 0 91 184" version="1.1" xmlns="http://www.w3.org/2000/svg" xmlns:xlink="http://www.w3.org/1999/xlink">
    <!-- Generator: Sketch 46 (44423) - http://www.bohemiancoding.com/sketch -->
    <title>new_cups</title>
    <desc>Created with Sketch.</desc>
    <defs></defs>
    <g id="Page-1" stroke="none" stroke-width="1" fill="none" fill-rule="evenodd">
        <g id="new_cups" transform="translate(0.000000, 1.000000)">
            <g id="cup" transform="translate(1.000000, 93.000000)">
                <circle id="Oval" stroke="#4BBF60" cx="44.734" cy="44.734" r="44.734"></circle>
                <path d="M66.2245116,41.1070586 L61.6972473,41.1070586 L61.6972473,32.9160855 C61.6972473,28.5448683 58.1784601,25 53.8392738,25 L24.8590897,25 C20.5193452,25 17,28.5443062 17,32.9160855 L17,44.0476241 C17,48.4188413 20.5187872,51.9631475 24.8590897,51.9631475 L27.3130322,51.9631475 L31.489813,59.3789265 L35.6665938,51.9631475 L42.9793088,51.9631475 L42.980425,53.6051646 C42.980425,56.790262 45.5515673,59.3789265 48.7126157,59.3789265 L59.2873943,59.3789265 L62.2179496,64.5547451 L65.148505,59.3789265 L66.2245116,59.3789265 C69.3850019,59.3789265 71.9572604,56.790262 71.9572604,53.6051646 L71.9572604,46.879134 C71.9572604,43.6962852 69.3850019,41.1070586 66.2245116,41.1070586 Z M29.5253196,41.3274183 C27.9654449,41.3274183 26.7008023,40.0536042 26.7008023,38.4824169 C26.7008023,36.9112297 27.9654449,35.6374156 29.5253196,35.6374156 C31.0851943,35.6374156 32.3498369,36.9112297 32.3498369,38.4824169 C32.3498369,40.0536042 31.0851943,41.3274183 29.5253196,41.3274183 Z M49.1719277,35.6374156 C50.7318024,35.6374156 51.9970031,36.9112297 51.9970031,38.4824169 C51.9970031,40.0536042 50.7318024,41.3274183 49.1719277,41.3274183 C47.6114949,41.3274183 46.3468523,40.0536042 46.3468523,38.4824169 C46.3474104,36.9112297 47.6114949,35.6374156 49.1719277,35.6374156 Z M39.3489027,41.3268561 C37.789028,41.3268561 36.5243854,40.0530421 36.5243854,38.4818548 C36.5243854,36.9106675 37.789028,35.6368535 39.3489027,35.6368535 C40.9087774,35.6368535 42.17342,36.9106675 42.17342,38.4818548 C42.17342,40.0530421 40.9087774,41.3268561 39.3489027,41.3268561 Z M66.2245116,57.4007483 L64.335361,57.4007483 L62.2179496,61.4396472 L60.1005383,57.4007483 L48.7126157,57.4007483 C46.6359453,57.4007483 44.9454764,55.6980198 44.9454764,53.6051646 L44.9454764,51.9637096 L53.8392738,51.9637096 C58.1784601,51.9637096 61.6972473,48.4194034 61.6972473,44.0487484 L61.6972473,43.086361 L66.2245116,43.086361 C68.3028563,43.086361 69.9927671,44.7890895 69.9927671,46.8796961 L69.9927671,53.6051646 C69.9927671,55.6980198 68.3028563,57.4007483 66.2245116,57.4007483 Z" id="Shape" fill="#FFFFFF" fill-rule="nonzero"></path>
            </g>
            <g id="cup-active" fill-rule="nonzero">
                <circle id="Oval" stroke="#4BBF60" fill="#FFFFFF" cx="45.234" cy="45" r="44.734"></circle>
                <path d="M67.2245116,43.1070586 L62.6972473,43.1070586 L62.6972473,34.9160855 C62.6972473,30.5448683 59.1784601,27 54.8392738,27 L25.8590897,27 C21.5193452,27 18,30.5443062 18,34.9160855 L18,46.0476241 C18,50.4188413 21.5187872,53.9631475 25.8590897,53.9631475 L28.3130322,53.9631475 L32.489813,61.3789265 L36.6665938,53.9631475 L43.9793088,53.9631475 L43.980425,55.6051646 C43.980425,58.790262 46.5515673,61.3789265 49.7126157,61.3789265 L60.2873943,61.3789265 L63.2179496,66.5547451 L66.148505,61.3789265 L67.2245116,61.3789265 C70.3850019,61.3789265 72.9572604,58.790262 72.9572604,55.6051646 L72.9572604,48.879134 C72.9572604,45.6962852 70.3850019,43.1070586 67.2245116,43.1070586 Z M30.5253196,43.3274183 C28.9654449,43.3274183 27.7008023,42.0536042 27.7008023,40.4824169 C27.7008023,38.9112297 28.9654449,37.6374156 30.5253196,37.6374156 C32.0851943,37.6374156 33.3498369,38.9112297 33.3498369,40.4824169 C33.3498369,42.0536042 32.0851943,43.3274183 30.5253196,43.3274183 Z M50.1719277,37.6374156 C51.7318024,37.6374156 52.9970031,38.9112297 52.9970031,40.4824169 C52.9970031,42.0536042 51.7318024,43.3274183 50.1719277,43.3274183 C48.6114949,43.3274183 47.3468523,42.0536042 47.3468523,40.4824169 C47.3474104,38.9112297 48.6114949,37.6374156 50.1719277,37.6374156 Z M40.3489027,43.3268561 C38.789028,43.3268561 37.5243854,42.0530421 37.5243854,40.4818548 C37.5243854,38.9106675 38.789028,37.6368535 40.3489027,37.6368535 C41.9087774,37.6368535 43.17342,38.9106675 43.17342,40.4818548 C43.17342,42.0530421 41.9087774,43.3268561 40.3489027,43.3268561 Z M67.2245116,59.4007483 L65.335361,59.4007483 L63.2179496,63.4396472 L61.1005383,59.4007483 L49.7126157,59.4007483 C47.6359453,59.4007483 45.9454764,57.6980198 45.9454764,55.6051646 L45.9454764,53.9637096 L54.8392738,53.9637096 C59.1784601,53.9637096 62.6972473,50.4194034 62.6972473,46.0487484 L62.6972473,45.086361 L67.2245116,45.086361 C69.3028563,45.086361 70.9927671,46.7890895 70.9927671,48.8796961 L70.9927671,55.6051646 C70.9927671,57.6980198 69.3028563,59.4007483 67.2245116,59.4007483 Z" id="Shape-Copy-133" fill="#4BBF60"></path>
            </g>
        </g>
    </g>
</svg>