<svg id="profile" xmlns="http://www.w3.org/2000/svg" width="90.469" height="183" viewBox="0 0 90.469 183">
  <defs>
    <style>
      .cls-1 {
        fill: none;
      }

      .cls-1, .cls-3 {
        stroke: #4bbf60;
        stroke-width: 1px;
      }

      .cls-2, .cls-3 {
        fill: #fff;
      }

      .cls-2, .cls-4 {
        fill-rule: evenodd;
      }

      .cls-4 {
        fill: #4bbf60;
      }
    </style>
  </defs>
  <g id="profile-2" data-name="profile">
    <circle id="Ellipse_1_copy" data-name="Ellipse 1 copy" class="cls-1" cx="45.234" cy="138" r="44.734"/>
    <path id="Forma_1" data-name="Forma 1" class="cls-2" d="M144.955,2115.1a169.1,169.1,0,0,0-16.062-7.88,2.187,2.187,0,0,1-1.189-.93,28.872,28.872,0,0,1-1.2-3.45,2.393,2.393,0,0,0-1.241-1.8,1.03,1.03,0,0,1-.408-0.8c0.043-2.7-.586-5.54,1.412-7.9a0.994,0.994,0,0,0,.127-0.27c1.075-2.36,1.275-5.06,2.776-7.26a0.43,0.43,0,0,0,.055-0.19c0.171-1.68.358-3.36,0.5-5.04a0.769,0.769,0,0,0-.349-0.64c-0.831-.29-0.784-0.96-0.781-1.63q0-4.92,0-9.85a6.3,6.3,0,0,0-2-4.9c-1.636-1.47-3.318-2.9-5-4.33-0.815-.69-0.886-1.22-0.126-1.98a9.679,9.679,0,0,1,1.157-.85l-0.253-.39a9.622,9.622,0,0,0-1.519.01c-1.851.3-3.723,0.57-5.551,1-3.487.82-6.876,1.92-9.7,4.26-1.941,1.6-3.485,3.47-3.678,6.11-0.1,1.38-.087,2.77-0.1,4.15-0.013,2.25.017,4.51-.029,6.76a1.346,1.346,0,0,1-.469,1.05,1.2,1.2,0,0,0-.81,1.64c0.083,0.52.016,1.07,0.131,1.58,0.316,1.41.65,2.81,1.053,4.21a25.084,25.084,0,0,1,1.053,3.06,10.392,10.392,0,0,0,2.513,5.51,1.582,1.582,0,0,1,.385,1.05c-0.111,1.61-.275,3.23-0.493,4.83a1.172,1.172,0,0,1-.642.84c-1.069.22-1.235,1.05-1.49,1.88-0.337,1.11-.7,2.21-1.123,3.28a1.709,1.709,0,0,1-.792.82c-1.9.83-3.842,1.6-5.759,2.41-2.038.85-4.095,1.67-6.091,2.63-2.053.99-6.05,3.17-6.05,3.17Z" transform="translate(-69.5 -1951.5)"/>
  </g>
  <g id="profile-active">
    <circle id="Ellipse_1_copy-2" data-name="Ellipse 1 copy" class="cls-3" cx="45.234" cy="45" r="44.734"/>
    <path id="Forma_1_copy" data-name="Forma 1 copy" class="cls-4" d="M144.955,2024.1a169.1,169.1,0,0,0-16.062-7.88,2.187,2.187,0,0,1-1.189-.93,28.872,28.872,0,0,1-1.2-3.45,2.393,2.393,0,0,0-1.241-1.8,1.03,1.03,0,0,1-.408-0.8c0.043-2.7-.586-5.54,1.412-7.9a0.994,0.994,0,0,0,.127-0.27c1.075-2.36,1.275-5.06,2.776-7.26a0.43,0.43,0,0,0,.055-0.19c0.171-1.68.358-3.36,0.5-5.04a0.769,0.769,0,0,0-.349-0.64c-0.831-.29-0.784-0.96-0.781-1.63q0-4.92,0-9.85a6.3,6.3,0,0,0-2-4.9c-1.636-1.47-3.318-2.9-5-4.33-0.815-.69-0.886-1.22-0.126-1.98a9.679,9.679,0,0,1,1.157-.85l-0.253-.39a9.622,9.622,0,0,0-1.519.01c-1.851.3-3.723,0.57-5.551,1-3.487.82-6.876,1.92-9.7,4.26-1.941,1.6-3.485,3.47-3.678,6.11-0.1,1.38-.087,2.77-0.1,4.15-0.013,2.25.017,4.51-.029,6.76a1.346,1.346,0,0,1-.469,1.05,1.2,1.2,0,0,0-.81,1.64c0.083,0.52.016,1.07,0.131,1.58,0.316,1.41.65,2.81,1.053,4.21a25.084,25.084,0,0,1,1.053,3.06,10.392,10.392,0,0,0,2.513,5.51,1.582,1.582,0,0,1,.385,1.05c-0.111,1.61-.275,3.23-0.493,4.83a1.172,1.172,0,0,1-.642.84c-1.069.22-1.235,1.05-1.49,1.88-0.337,1.11-.7,2.21-1.123,3.28a1.709,1.709,0,0,1-.792.82c-1.9.83-3.842,1.6-5.759,2.41-2.038.85-4.095,1.67-6.091,2.63-2.053.99-6.05,3.17-6.05,3.17Z" transform="translate(-69.5 -1951.5)"/>
  </g>
</svg>
