<?xml version="1.0" encoding="UTF-8"?>
<svg width="91px" height="184px" viewBox="0 0 91 184" version="1.1" xmlns="http://www.w3.org/2000/svg" xmlns:xlink="http://www.w3.org/1999/xlink">
    <!-- Generator: Sketch 46.2 (44496) - http://www.bohemiancoding.com/sketch -->
    <title>chats</title>
    <desc>Created with Sketch.</desc>
    <defs></defs>
    <g id="Page-1" stroke="none" stroke-width="1" fill="none" fill-rule="evenodd">
        <g id="chats" transform="translate(0.000000, 1.000000)">
            <g id="cup" transform="translate(1.000000, 93.000000)">
                <circle id="Oval" stroke="#4BBF60" cx="44.734" cy="44.734" r="44.734"></circle>
                <g id="book-active" transform="translate(7.978630, 13.777373)" fill="#FFFFFF">
                    <path d="M18.7752657,16.4232272 C16.7056608,16.4281696 15.0291439,18.1046864 15.0242016,20.1742913 L15.0242016,24.9389743 L14.898342,24.9974091 C13.0216585,25.8760447 12.2087485,28.1067743 13.080121,29.9868413 L15.0197066,34.1469489 L15.0197066,38.7363275 C15.0209448,40.8103164 16.7012779,42.4916551 18.7752657,42.4941341 L18.9236001,42.4941341 L20.9463429,46.8115662 C21.8266052,48.6839839 24.0535909,49.4942533 25.9312801,48.6252922 L39.0633757,42.4941341 L53.5754314,42.4941341 C55.6450362,42.4891917 57.3215531,40.8126748 57.3264955,38.74307 L57.3264955,33.978387 L57.452355,33.9199522 C59.325755,33.0405872 60.1363714,30.8126478 59.2660811,28.935015 L57.3264955,24.7749074 L57.3264955,20.1787863 C57.3240252,18.1074262 55.646787,16.4281782 53.5754314,16.4232272 L51.4133441,12.1057951 C50.5339791,10.2323952 48.3060397,9.42177878 46.4284069,10.2920691 L33.2873213,16.4232272 L18.7752657,16.4232272 Z M37.0541179,16.4232272 L47.109397,11.7349589 C48.1895141,11.2362445 49.4697119,11.701771 49.9771967,12.7777952 L50.1120463,13.0677217 L42.9200719,16.4232272 L37.0541179,16.4232272 Z M57.324248,28.5327139 L57.8209437,29.5957776 C58.2137944,30.4485396 58.0133223,31.4572496 57.324248,32.0949887 L57.324248,28.5372089 L57.324248,28.5327139 Z M35.2988267,42.4806491 L25.2390526,47.1734124 C24.1589355,47.6721268 22.8787377,47.2066003 22.3712528,46.1305761 L20.6721489,42.4941341 L35.2988267,42.4806491 Z M15.0286966,29.4294632 L14.6668503,29.5980251 L14.5320008,29.3080987 C14.1391502,28.4553367 14.3396222,27.4466267 15.0286966,26.8088876 L15.0286966,29.4294632 Z M21.0333508,28.2657677 L23.9672003,28.2657677 C24.7773604,28.2657677 25.434125,28.9225323 25.434125,29.7326925 L25.434125,29.7326925 C25.434125,30.5428526 24.7773604,31.1996172 23.9672003,31.1996172 L21.0333508,31.1996172 C20.2231907,31.1996172 19.5664261,30.5428526 19.5664261,29.7326925 C19.5664261,28.9225323 20.2231907,28.2657677 21.0333508,28.2657677 Z M46.2974024,34.5634713 L53.3056949,34.5634713 L53.3056949,34.5634713 C54.115855,34.5634713 54.7726196,35.2202358 54.7726196,36.030396 C54.7726196,36.8405561 54.115855,37.4973207 53.3056949,37.4973207 L46.2974024,37.4973207 C45.4872423,37.4973207 44.8304777,36.8405561 44.8304777,36.030396 C44.8304777,35.2202358 45.4872423,34.5634713 46.2974024,34.5634713 L46.2974024,34.5634713 Z M21.0055582,21.5807235 L26.1124608,21.5807235 C26.9072715,21.5807235 27.5515928,22.2250449 27.5515928,23.0198556 L27.5515928,23.0198556 C27.5515928,23.8146663 26.9072715,24.4589876 26.1124608,24.4589876 L21.0055582,24.4589876 C20.2107475,24.4589876 19.5664261,23.8146663 19.5664261,23.0198556 C19.5664261,22.2250449 20.2107475,21.5807235 21.0055582,21.5807235 Z M50.3718454,28.2657677 L53.3056949,28.2657677 C54.115855,28.2657677 54.7726196,28.9225323 54.7726196,29.7326925 L54.7726196,29.7326925 L54.7726196,29.7326925 C54.7726196,30.5428526 54.115855,31.1996172 53.3056949,31.1996172 L50.3718454,31.1996172 C49.5616853,31.1996172 48.9049207,30.5428526 48.9049207,29.7326925 C48.9049207,28.9225323 49.5616853,28.2657677 50.3718454,28.2657677 Z M46.2974024,21.5807235 L53.3056949,21.5807235 L53.3056949,21.5807235 C54.115855,21.5807235 54.7726196,22.237488 54.7726196,23.0476482 L54.7726196,23.0476482 C54.7726196,23.8578084 54.115855,24.5145729 53.3056949,24.5145729 L46.2974024,24.5145729 C45.4872423,24.5145729 44.8304777,23.8578084 44.8304777,23.0476482 C44.8304777,22.237488 45.4872423,21.5807235 46.2974024,21.5807235 Z M21.0333508,34.5634713 L26.0846681,34.5634713 C26.8948283,34.5634713 27.5515928,35.2202358 27.5515928,36.030396 C27.5515928,36.8405561 26.8948283,37.4973207 26.0846681,37.4973207 L21.0333508,37.4973207 C20.2231907,37.4973207 19.5664261,36.8405561 19.5664261,36.030396 C19.5664261,35.2202358 20.2231907,34.5634713 21.0333508,34.5634713 Z M36.2514168,37.07823 C32.3063298,37.07823 29.1082049,33.8801051 29.1082049,29.9350181 C29.1082049,25.9899312 32.3063298,22.7918063 36.2514168,22.7918063 C40.1965037,22.7918063 43.3946286,25.9899312 43.3946286,29.9350181 C43.3946286,33.8801051 40.1965037,37.07823 36.2514168,37.07823 Z M39.4519379,35.1283466 C39.3271858,35.1283466 39.2024337,35.0867625 39.0776817,35.0035945 L36.2083838,32.9243932 L33.339086,35.0035945 C33.1311659,35.1699306 32.8400777,35.1699306 32.5905736,35.0035945 C32.3826534,34.8372584 32.2994854,34.5461702 32.3826534,34.296666 L33.4638381,30.9283599 L30.5945403,28.8491586 C30.3866202,28.6828225 30.3034521,28.3917343 30.3866202,28.1422301 C30.4697882,27.892726 30.7192924,27.7263899 30.9687965,27.7263899 L34.5034388,27.7263899 L35.5846234,24.3580837 C35.6677915,24.1085796 35.9172957,23.9422435 36.1667998,23.9422435 C36.416304,23.9422435 36.6658081,24.1085796 36.7489762,24.3580837 L37.8301609,27.7263899 L41.3648031,27.7263899 C41.6143073,27.7263899 41.8638114,27.892726 41.9469795,28.1422301 C42.0301475,28.3917343 41.9469795,28.6828225 41.7390594,28.8491586 L38.8697615,30.9283599 L39.9509462,34.296666 C40.0341143,34.5461702 39.9509462,34.8372584 39.7430261,35.0035945 C39.7014421,35.0867625 39.57669,35.1283466 39.4519379,35.1283466 Z M36.2083838,31.5105363 C36.3331359,31.5105363 36.457888,31.5521203 36.5826401,31.6352883 L38.2875852,32.8828091 L37.6222407,30.8867759 C37.5390727,30.6372717 37.6222407,30.3461835 37.8301609,30.1798474 L39.535106,28.9323266 L37.4559046,28.9323266 C37.2064005,28.9323266 36.9568963,28.7659905 36.8737283,28.5164864 L36.2083838,26.5620371 L35.5430394,28.5580704 C35.4598714,28.8075745 35.2103672,28.9739107 34.9608631,28.9739107 L32.8816617,28.9739107 L34.5866068,30.2214314 C34.7945269,30.3877675 34.877695,30.6788557 34.7945269,30.9283599 L34.1291825,32.9243932 L35.8341276,31.6768724 C35.9588797,31.5521203 36.0836318,31.5105363 36.2083838,31.5105363 Z" id="Combined-Shape" fill-rule="nonzero"></path>
                    <path d="M13.7221177,6.71788975 C13.8374095,6.83360415 13.902197,6.99067044 13.902197,7.15446128 C13.902197,7.31825212 13.8374095,7.47531842 13.7221177,7.59103281 C13.6070312,7.70695355 13.4508171,7.77209451 13.2879149,7.77209451 C13.1250128,7.77209451 12.9687987,7.70695355 12.8537121,7.59103281 L11.1749118,5.89600407 C11.05962,5.78028968 10.9948325,5.62322338 10.9948325,5.45943254 C10.9948325,5.29564171 11.05962,5.13857541 11.1749118,5.02286101 C11.2899984,4.90694028 11.4462125,4.84179931 11.6091146,4.84179931 C11.7720168,4.84179931 11.9282309,4.90694028 12.0433174,5.02286101 L13.7238756,6.71258726 L13.7221177,6.71788975 Z M58.1848366,51.4214005 C58.3001284,51.5371149 58.3649159,51.6941812 58.3649159,51.8579721 C58.3649159,52.0217629 58.3001284,52.1788292 58.1848366,52.2945436 C58.06975,52.4104643 57.913536,52.4756053 57.7506338,52.4756053 C57.5877316,52.4756053 57.4315176,52.4104643 57.316431,52.2945436 L51.9706386,46.919588 C51.8553468,46.8038736 51.7905593,46.6468073 51.7905593,46.4830165 C51.7905593,46.3192257 51.8553468,46.1621594 51.9706386,46.046445 C52.0857251,45.9305242 52.2419392,45.8653833 52.4048414,45.8653833 C52.5677435,45.8653833 52.7239576,45.9305242 52.8390442,46.046445 L58.1865945,51.423168 L58.1848366,51.4214005 Z M21.354946,14.3799852 C21.4702378,14.4956996 21.5350253,14.6527659 21.5350253,14.8165568 C21.5350253,14.9803476 21.4702378,15.1374139 21.354946,15.2531283 C21.2398594,15.369049 21.0836454,15.43419 20.9207432,15.43419 C20.757841,15.43419 20.601627,15.369049 20.4865404,15.2531283 L15.1319584,9.87994023 C15.0166666,9.76422584 14.9518791,9.60715954 14.9518791,9.4433687 C14.9518791,9.27957786 15.0166666,9.12251157 15.1319584,9.00679717 C15.247045,8.89087643 15.4032591,8.82573547 15.5661612,8.82573547 C15.7290634,8.82573547 15.8852775,8.89087643 16.000364,9.00679717 L21.354946,14.3799852 Z M47.524894,2.69860367 C47.5864482,2.54677525 47.7055865,2.42583246 47.8559939,2.36248921 C48.0064012,2.29914596 48.1757014,2.2986144 48.3264992,2.36101192 C48.4768692,2.42357769 48.5963557,2.54364909 48.6586657,2.69480456 C48.7209758,2.84596003 48.7210037,3.01581393 48.6587435,3.16699013 L45.76523,10.1945545 C45.7030037,10.3457449 45.5835838,10.4658832 45.4332485,10.5285331 C45.2829131,10.5911831 45.1139808,10.5912112 44.9636249,10.5286113 C44.8132549,10.4660455 44.6937684,10.3459741 44.6314584,10.1948187 C44.5691483,10.0436632 44.5691204,9.87380928 44.6313806,9.72263308 L47.524894,2.69860367 L47.524894,2.69860367 Z M27.588481,51.0926463 C27.6507073,50.9414559 27.7701272,50.8213176 27.9204626,50.7586677 C28.0707979,50.6960177 28.2397302,50.6959896 28.3900862,50.7585895 C28.5404562,50.8211553 28.6599427,50.9412267 28.7222527,51.0923821 C28.7845627,51.2435376 28.7845907,51.4133915 28.7223304,51.5645677 L25.828817,58.5885971 C25.7665907,58.7397875 25.6471708,58.8599257 25.4968355,58.9225757 C25.3465001,58.9852257 25.1775678,58.9852538 25.0272118,58.9226539 C24.8768418,58.8600881 24.7573554,58.7400167 24.6950453,58.5888612 C24.6327353,58.4377058 24.6327073,58.2678519 24.6949676,58.1166757 L27.588481,51.0926463 Z M63.99999,18.5954634 C64.1503459,18.5328635 64.3192782,18.5328916 64.4696136,18.5955416 C64.6199489,18.6581915 64.7393688,18.7783298 64.8015951,18.9295201 C64.8638554,19.0806963 64.8638274,19.2505503 64.8015174,19.4017057 C64.7392074,19.5528612 64.6197209,19.6729326 64.4693509,19.7354984 L57.4834321,22.6447969 C57.3330761,22.7073968 57.1641438,22.7073687 57.0138085,22.6447187 C56.8634731,22.5820688 56.7440532,22.4619305 56.6818269,22.3107401 C56.6195666,22.1595639 56.6195946,21.98971 56.6819046,21.8385546 C56.7442147,21.6873991 56.8637011,21.5673277 57.0140711,21.5047619 L63.99999,18.5954634 Z M15.8685211,38.6406364 C16.018877,38.5780365 16.1878094,38.5780646 16.3381447,38.6407146 C16.48848,38.7033645 16.6079,38.8235028 16.6701263,38.9746932 C16.7323865,39.1258694 16.7323585,39.2957233 16.6700485,39.4468787 C16.6077385,39.5980342 16.488252,39.7181056 16.337882,39.7806714 L9.35372109,42.6917374 C9.20336513,42.7543373 9.03443282,42.7543092 8.88409748,42.6916592 C8.73376214,42.6290093 8.61434222,42.508871 8.55211591,42.3576806 C8.48985566,42.2065044 8.48988363,42.0366505 8.55219367,41.8854951 C8.61450371,41.7343396 8.73399015,41.6142682 8.88436017,41.5517024 L15.870279,38.6424039 L15.8685211,38.6406364 Z M64.4693509,41.5499349 C64.6197209,41.6125007 64.7392074,41.7325721 64.8015174,41.8837276 C64.8638274,42.034883 64.8638554,42.2047369 64.8015951,42.3559131 C64.7393688,42.5071035 64.6199489,42.6272418 64.4696136,42.6898917 C64.3192782,42.7525417 64.1503459,42.7525698 63.99999,42.6899699 L57.0140711,39.7806714 C56.8637011,39.7181056 56.7442147,39.5980342 56.6819046,39.4468787 C56.6195946,39.2957233 56.6195666,39.1258694 56.6818269,38.9746932 C56.7440532,38.8235028 56.8634731,38.7033645 57.0138085,38.6407146 C57.1641438,38.5780646 57.3330761,38.5780365 57.4834321,38.6406364 L64.4693509,41.5499349 L64.4693509,41.5499349 Z M16.3396399,21.5047619 C16.4900099,21.5673277 16.6094964,21.6873991 16.6718064,21.8385546 C16.7341165,21.98971 16.7341444,22.1595639 16.6718842,22.3107401 C16.6096579,22.4619305 16.4902379,22.5820688 16.3399026,22.6447187 C16.1895673,22.7073687 16.0206349,22.7073968 15.870279,22.6447969 L8.88260226,19.7372659 C8.73223225,19.6747001 8.6127458,19.5546287 8.55043576,19.4034732 C8.48812572,19.2523177 8.48809775,19.0824638 8.55035801,18.9312876 C8.61258432,18.7800973 8.73200424,18.659959 8.88233957,18.5973091 C9.03267491,18.5346591 9.20160723,18.534631 9.35196319,18.5972309 L16.337882,21.5065294 L16.3396399,21.5047619 Z M48.6587435,58.1166757 C48.7210037,58.2678519 48.7209758,58.4377058 48.6586657,58.5888612 C48.5963557,58.7400167 48.4768692,58.8600881 48.3264992,58.9226539 C48.1761433,58.9852538 48.0072109,58.9852257 47.8568756,58.9225757 C47.7065403,58.8599257 47.5871204,58.7397875 47.524894,58.5885971 L44.6296227,51.5645677 C44.5673624,51.4133915 44.5673904,51.2435376 44.6297005,51.0923821 C44.6920105,50.9412267 44.8114969,50.8211553 44.961867,50.7585895 C45.1122229,50.6959896 45.2811552,50.6960177 45.4314906,50.7586677 C45.5818259,50.8213176 45.7012458,50.9414559 45.7634721,51.0926463 L48.6569856,58.1166757 L48.6587435,58.1166757 Z M28.7223304,9.72263308 C28.7843894,9.8742536 28.7838607,10.0444773 28.7208612,10.1957052 C28.6578616,10.346933 28.537575,10.4667214 28.3865704,10.5286113 C28.2362144,10.5912112 28.0672821,10.5911831 27.9169468,10.5285331 C27.7666114,10.4658832 27.6471915,10.3457449 27.5849652,10.1945545 L24.6949676,3.17052512 C24.6315017,3.01916537 24.6306982,2.84860554 24.6927353,2.69664812 C24.7547724,2.54469071 24.8745259,2.42388709 25.0254539,2.36101192 C25.1758099,2.29841201 25.3447422,2.29844013 25.4950775,2.3610901 C25.6454129,2.42374006 25.7648328,2.54387835 25.8270591,2.69506868 L28.7205725,9.71909809 L28.7223304,9.72263308 Z M12.0380437,56.3102947 C11.9229571,56.4262154 11.766743,56.4913564 11.6038409,56.4913564 C11.4409387,56.4913564 11.2847246,56.4262154 11.1696381,56.3102947 C11.0543463,56.1945803 10.9895588,56.037514 10.9895588,55.8737231 C10.9895588,55.7099323 11.0543463,55.552866 11.1696381,55.4371516 L12.8501963,53.7474254 C12.9652829,53.6315046 13.121497,53.5663637 13.2843991,53.5663637 C13.4473013,53.5663637 13.6035154,53.6315046 13.7186019,53.7474254 C13.8338937,53.8631398 13.8986812,54.0202061 13.8986812,54.1839969 C13.8986812,54.3477877 13.8338937,54.504854 13.7186019,54.6205684 L12.0380437,56.3102947 Z M60.498241,7.58926532 C60.3831545,7.70518605 60.2269404,7.77032702 60.0640382,7.77032702 C59.9011361,7.77032702 59.744922,7.70518605 59.6298354,7.58926532 C59.5145436,7.47355092 59.4497561,7.31648462 59.4497561,7.15269378 C59.4497561,6.98890295 59.5145436,6.83183665 59.6298354,6.71612225 L61.3103936,5.026396 C61.4254802,4.91047527 61.5816943,4.8453343 61.7445964,4.8453343 C61.9074986,4.8453343 62.0637127,4.91047527 62.1787993,5.026396 C62.294091,5.1421104 62.3588786,5.2991767 62.3588786,5.46296754 C62.3588786,5.62675837 62.294091,5.78382467 62.1787993,5.89953907 L60.498241,7.58926532 Z M1.22692121,31.38153 C1.06420825,31.3819994 0.907974181,31.3174592 0.792589066,31.2021076 C0.67720395,31.0867559 0.61211964,30.930042 0.611654081,30.7664414 C0.611187187,30.6028408 0.675377235,30.4457544 0.790103007,30.3297398 C0.904828778,30.2137252 1.06069243,30.1482858 1.2234054,30.1478177 L3.59833654,30.1478177 C3.7610495,30.1473483 3.91728357,30.2118885 4.03266869,30.3272402 C4.1480538,30.4425918 4.21313811,30.5993058 4.21360367,30.7629064 C4.21407056,30.926507 4.14988052,31.0835934 4.03515475,31.199608 C3.92042897,31.3156225 3.76456532,31.3810619 3.60185235,31.38153 L1.22692121,31.38153 L1.22692121,31.38153 Z M69.7518587,31.2047804 C69.5891457,31.2052498 69.4329117,31.1407096 69.3175266,31.025358 C69.2021414,30.9100063 69.1370571,30.7532924 69.1365916,30.5896918 C69.1361247,30.4260911 69.2003147,30.2690048 69.3150405,30.1529902 C69.4297663,30.0369756 69.5856299,29.9715362 69.7483429,29.9710681 L72.123274,29.9710681 C72.285987,29.9705987 72.4422211,30.0351389 72.5576062,30.1504906 C72.6729913,30.2658422 72.7380756,30.4225561 72.7385412,30.5861568 C72.7390081,30.7497574 72.674818,30.9068438 72.5600922,31.0228584 C72.4453665,31.1388729 72.2895028,31.2043123 72.1267898,31.2047804 L69.7518587,31.2047804 Z M16.019701,52.2839386 C15.9046144,52.3998593 15.7484004,52.4650003 15.5854982,52.4650003 C15.422596,52.4650003 15.266382,52.3998593 15.1512954,52.2839386 C15.0360036,52.1682242 14.9712161,52.0111579 14.9712161,51.8473671 C14.9712161,51.6835762 15.0360036,51.5265099 15.1512954,51.4107956 L20.4988457,46.03584 C20.6139323,45.9199192 20.7701464,45.8547783 20.9330485,45.8547783 C21.0959507,45.8547783 21.2521648,45.9199192 21.3672513,46.03584 C21.4825431,46.1515544 21.5473307,46.3086207 21.5473307,46.4724115 C21.5473307,46.6362024 21.4825431,46.7932686 21.3672513,46.908983 L16.0161852,52.2857061 L16.019701,52.2839386 Z M52.8583811,15.2513608 C52.7432946,15.3672815 52.5870805,15.4324225 52.4241783,15.4324225 C52.2612762,15.4324225 52.1050621,15.3672815 51.9899755,15.2513608 C51.8746837,15.1356464 51.8098962,14.9785801 51.8098962,14.8147893 C51.8098962,14.6509984 51.8746837,14.4939321 51.9899755,14.3782177 L57.3375259,9.00326218 C57.4526124,8.88734144 57.6088265,8.82220048 57.7717287,8.82220048 C57.9346308,8.82220048 58.0908449,8.88734144 58.2059315,9.00326218 C58.3212233,9.11897657 58.3860108,9.27604287 58.3860108,9.43983371 C58.3860108,9.60362455 58.3212233,9.76069084 58.2059315,9.87640524 L52.8583811,15.2513608 L52.8583811,15.2513608 Z M6.85046281,31.3355751 C6.68774985,31.3360446 6.53151578,31.2715043 6.41613066,31.1561527 C6.30074555,31.040801 6.23566124,30.8840871 6.23519568,30.7204865 C6.23472879,30.5568859 6.29891883,30.3997995 6.41364461,30.2837849 C6.52837038,30.1677703 6.68423403,30.1023309 6.846947,30.1018628 L14.4059432,30.0841879 C14.5686591,30.082302 14.7254546,30.1454902 14.8418309,30.2598496 C14.9582073,30.374209 15.0246298,30.5303702 15.0264841,30.693974 C15.026951,30.8575747 14.9627609,31.014661 14.8480351,31.1306756 C14.7333094,31.2466902 14.5774457,31.3121296 14.4147327,31.3125977 L6.85573653,31.3302726 L6.85046281,31.3355751 Z M58.9460099,31.2118504 C58.783297,31.2123198 58.6270629,31.1477796 58.5116778,31.032428 C58.3962927,30.9170763 58.3312084,30.7603624 58.3307428,30.5967617 C58.3302759,30.4331611 58.394466,30.2760747 58.5091917,30.1600602 C58.6239175,30.0440456 58.7797812,29.9786062 58.9424941,29.9781381 L66.5014903,29.9604632 C66.6642033,29.9599937 66.8204374,30.0245339 66.9358225,30.1398856 C67.0512076,30.2552372 67.1162919,30.4119512 67.1167575,30.5755518 C67.1172244,30.7391524 67.0530343,30.8962388 66.9383085,31.0122534 C66.8235828,31.128268 66.6677191,31.1937073 66.5050062,31.1941754 L58.9460099,31.2118504 Z M37.2903648,60.6335901 C37.2903648,60.7971905 37.2257274,60.9540903 37.1106721,61.0697732 C36.9956168,61.1854562 36.8395683,61.2504462 36.6768555,61.2504462 C36.3380237,61.2504462 36.0633463,60.9742703 36.0633463,60.6335901 L36.0633463,53.0333569 C36.0633463,52.6926767 36.3380237,52.4165008 36.6768555,52.4165008 C36.8395683,52.4165008 36.9956168,52.4814908 37.1106721,52.5971738 C37.2257274,52.7128568 37.2903648,52.8697565 37.2903648,53.0333569 L37.2903648,60.6335901 L37.2903648,60.6335901 Z M37.2903648,8.25384384 C37.2903648,8.41744426 37.2257274,8.57434403 37.1106721,8.69002699 C36.9956168,8.80570996 36.8395683,8.87069997 36.6768555,8.87069997 C36.3380237,8.87069997 36.0633463,8.59452407 36.0633463,8.25384384 L36.0633463,0.65361071 C36.0633463,0.312930476 36.3380237,0.0367545792 36.6768555,0.0367545792 C36.8395683,0.0367545792 36.9956168,0.101744592 37.1106721,0.217427557 C37.2257274,0.333110522 37.2903648,0.490010292 37.2903648,0.65361071 L37.2903648,8.25384384 Z" id="Combined-Shape"></path>
                </g>
            </g>
            <g id="cup-active">
                <circle id="Oval" stroke="#4BBF60" fill="#FFFFFF" fill-rule="nonzero" cx="45.234" cy="45" r="44.734"></circle>
                <g id="book-active" transform="translate(8.734000, 14.000000)" fill="#04B259">
                    <path d="M18.7752657,16.4232272 C16.7056608,16.4281696 15.0291439,18.1046864 15.0242016,20.1742913 L15.0242016,24.9389743 L14.898342,24.9974091 C13.0216585,25.8760447 12.2087485,28.1067743 13.080121,29.9868413 L15.0197066,34.1469489 L15.0197066,38.7363275 C15.0209448,40.8103164 16.7012779,42.4916551 18.7752657,42.4941341 L18.9236001,42.4941341 L20.9463429,46.8115662 C21.8266052,48.6839839 24.0535909,49.4942533 25.9312801,48.6252922 L39.0633757,42.4941341 L53.5754314,42.4941341 C55.6450362,42.4891917 57.3215531,40.8126748 57.3264955,38.74307 L57.3264955,33.978387 L57.452355,33.9199522 C59.325755,33.0405872 60.1363714,30.8126478 59.2660811,28.935015 L57.3264955,24.7749074 L57.3264955,20.1787863 C57.3240252,18.1074262 55.646787,16.4281782 53.5754314,16.4232272 L51.4133441,12.1057951 C50.5339791,10.2323952 48.3060397,9.42177878 46.4284069,10.2920691 L33.2873213,16.4232272 L18.7752657,16.4232272 Z M37.0541179,16.4232272 L47.109397,11.7349589 C48.1895141,11.2362445 49.4697119,11.701771 49.9771967,12.7777952 L50.1120463,13.0677217 L42.9200719,16.4232272 L37.0541179,16.4232272 Z M57.324248,28.5327139 L57.8209437,29.5957776 C58.2137944,30.4485396 58.0133223,31.4572496 57.324248,32.0949887 L57.324248,28.5372089 L57.324248,28.5327139 Z M35.2988267,42.4806491 L25.2390526,47.1734124 C24.1589355,47.6721268 22.8787377,47.2066003 22.3712528,46.1305761 L20.6721489,42.4941341 L35.2988267,42.4806491 Z M15.0286966,29.4294632 L14.6668503,29.5980251 L14.5320008,29.3080987 C14.1391502,28.4553367 14.3396222,27.4466267 15.0286966,26.8088876 L15.0286966,29.4294632 Z M21.0333508,28.2657677 L23.9672003,28.2657677 C24.7773604,28.2657677 25.434125,28.9225323 25.434125,29.7326925 L25.434125,29.7326925 C25.434125,30.5428526 24.7773604,31.1996172 23.9672003,31.1996172 L21.0333508,31.1996172 C20.2231907,31.1996172 19.5664261,30.5428526 19.5664261,29.7326925 C19.5664261,28.9225323 20.2231907,28.2657677 21.0333508,28.2657677 Z M46.2974024,34.5634713 L53.3056949,34.5634713 L53.3056949,34.5634713 C54.115855,34.5634713 54.7726196,35.2202358 54.7726196,36.030396 C54.7726196,36.8405561 54.115855,37.4973207 53.3056949,37.4973207 L46.2974024,37.4973207 C45.4872423,37.4973207 44.8304777,36.8405561 44.8304777,36.030396 C44.8304777,35.2202358 45.4872423,34.5634713 46.2974024,34.5634713 L46.2974024,34.5634713 Z M21.0055582,21.5807235 L26.1124608,21.5807235 L26.1124608,21.5807235 C26.9072715,21.5807235 27.5515928,22.2250449 27.5515928,23.0198556 C27.5515928,23.8146663 26.9072715,24.4589876 26.1124608,24.4589876 L21.0055582,24.4589876 C20.2107475,24.4589876 19.5664261,23.8146663 19.5664261,23.0198556 C19.5664261,22.2250449 20.2107475,21.5807235 21.0055582,21.5807235 Z M50.3718454,28.2657677 L53.3056949,28.2657677 C54.115855,28.2657677 54.7726196,28.9225323 54.7726196,29.7326925 L54.7726196,29.7326925 L54.7726196,29.7326925 C54.7726196,30.5428526 54.115855,31.1996172 53.3056949,31.1996172 L50.3718454,31.1996172 C49.5616853,31.1996172 48.9049207,30.5428526 48.9049207,29.7326925 C48.9049207,28.9225323 49.5616853,28.2657677 50.3718454,28.2657677 Z M46.2974024,21.5807235 L53.3056949,21.5807235 L53.3056949,21.5807235 C54.115855,21.5807235 54.7726196,22.237488 54.7726196,23.0476482 L54.7726196,23.0476482 C54.7726196,23.8578084 54.115855,24.5145729 53.3056949,24.5145729 L46.2974024,24.5145729 C45.4872423,24.5145729 44.8304777,23.8578084 44.8304777,23.0476482 C44.8304777,22.237488 45.4872423,21.5807235 46.2974024,21.5807235 Z M21.0333508,34.5634713 L26.0846681,34.5634713 C26.8948283,34.5634713 27.5515928,35.2202358 27.5515928,36.030396 C27.5515928,36.8405561 26.8948283,37.4973207 26.0846681,37.4973207 L21.0333508,37.4973207 C20.2231907,37.4973207 19.5664261,36.8405561 19.5664261,36.030396 C19.5664261,35.2202358 20.2231907,34.5634713 21.0333508,34.5634713 Z M36.2514168,37.07823 C32.3063298,37.07823 29.1082049,33.8801051 29.1082049,29.9350181 C29.1082049,25.9899312 32.3063298,22.7918063 36.2514168,22.7918063 C40.1965037,22.7918063 43.3946286,25.9899312 43.3946286,29.9350181 C43.3946286,33.8801051 40.1965037,37.07823 36.2514168,37.07823 Z M39.4519379,35.1283466 C39.3271858,35.1283466 39.2024337,35.0867625 39.0776817,35.0035945 L36.2083838,32.9243932 L33.339086,35.0035945 C33.1311659,35.1699306 32.8400777,35.1699306 32.5905736,35.0035945 C32.3826534,34.8372584 32.2994854,34.5461702 32.3826534,34.296666 L33.4638381,30.9283599 L30.5945403,28.8491586 C30.3866202,28.6828225 30.3034521,28.3917343 30.3866202,28.1422301 C30.4697882,27.892726 30.7192924,27.7263899 30.9687965,27.7263899 L34.5034388,27.7263899 L35.5846234,24.3580837 C35.6677915,24.1085796 35.9172957,23.9422435 36.1667998,23.9422435 C36.416304,23.9422435 36.6658081,24.1085796 36.7489762,24.3580837 L37.8301609,27.7263899 L41.3648031,27.7263899 C41.6143073,27.7263899 41.8638114,27.892726 41.9469795,28.1422301 C42.0301475,28.3917343 41.9469795,28.6828225 41.7390594,28.8491586 L38.8697615,30.9283599 L39.9509462,34.296666 C40.0341143,34.5461702 39.9509462,34.8372584 39.7430261,35.0035945 C39.7014421,35.0867625 39.57669,35.1283466 39.4519379,35.1283466 Z M36.2083838,31.5105363 C36.3331359,31.5105363 36.457888,31.5521203 36.5826401,31.6352883 L38.2875852,32.8828091 L37.6222407,30.8867759 C37.5390727,30.6372717 37.6222407,30.3461835 37.8301609,30.1798474 L39.535106,28.9323266 L37.4559046,28.9323266 C37.2064005,28.9323266 36.9568963,28.7659905 36.8737283,28.5164864 L36.2083838,26.5620371 L35.5430394,28.5580704 C35.4598714,28.8075745 35.2103672,28.9739107 34.9608631,28.9739107 L32.8816617,28.9739107 L34.5866068,30.2214314 C34.7945269,30.3877675 34.877695,30.6788557 34.7945269,30.9283599 L34.1291825,32.9243932 L35.8341276,31.6768724 C35.9588797,31.5521203 36.0836318,31.5105363 36.2083838,31.5105363 Z" id="Combined-Shape" fill-rule="nonzero"></path>
                    <path d="M13.7221177,6.71788975 C13.8374095,6.83360415 13.902197,6.99067044 13.902197,7.15446128 C13.902197,7.31825212 13.8374095,7.47531842 13.7221177,7.59103281 C13.6070312,7.70695355 13.4508171,7.77209451 13.2879149,7.77209451 C13.1250128,7.77209451 12.9687987,7.70695355 12.8537121,7.59103281 L11.1749118,5.89600407 C11.05962,5.78028968 10.9948325,5.62322338 10.9948325,5.45943254 C10.9948325,5.29564171 11.05962,5.13857541 11.1749118,5.02286101 C11.2899984,4.90694028 11.4462125,4.84179931 11.6091146,4.84179931 C11.7720168,4.84179931 11.9282309,4.90694028 12.0433174,5.02286101 L13.7238756,6.71258726 L13.7221177,6.71788975 Z M58.1848366,51.4214005 C58.3001284,51.5371149 58.3649159,51.6941812 58.3649159,51.8579721 C58.3649159,52.0217629 58.3001284,52.1788292 58.1848366,52.2945436 C58.06975,52.4104643 57.913536,52.4756053 57.7506338,52.4756053 C57.5877316,52.4756053 57.4315176,52.4104643 57.316431,52.2945436 L51.9706386,46.919588 C51.8553468,46.8038736 51.7905593,46.6468073 51.7905593,46.4830165 C51.7905593,46.3192257 51.8553468,46.1621594 51.9706386,46.046445 C52.0857251,45.9305242 52.2419392,45.8653833 52.4048414,45.8653833 C52.5677435,45.8653833 52.7239576,45.9305242 52.8390442,46.046445 L58.1865945,51.423168 L58.1848366,51.4214005 Z M21.354946,14.3799852 C21.4702378,14.4956996 21.5350253,14.6527659 21.5350253,14.8165568 C21.5350253,14.9803476 21.4702378,15.1374139 21.354946,15.2531283 C21.2398594,15.369049 21.0836454,15.43419 20.9207432,15.43419 C20.757841,15.43419 20.601627,15.369049 20.4865404,15.2531283 L15.1319584,9.87994023 C15.0166666,9.76422584 14.9518791,9.60715954 14.9518791,9.4433687 C14.9518791,9.27957786 15.0166666,9.12251157 15.1319584,9.00679717 C15.247045,8.89087643 15.4032591,8.82573547 15.5661612,8.82573547 C15.7290634,8.82573547 15.8852775,8.89087643 16.000364,9.00679717 L21.354946,14.3799852 Z M47.524894,2.69860367 C47.5864482,2.54677525 47.7055865,2.42583246 47.8559939,2.36248921 C48.0064012,2.29914596 48.1757014,2.2986144 48.3264992,2.36101192 C48.4768692,2.42357769 48.5963557,2.54364909 48.6586657,2.69480456 C48.7209758,2.84596003 48.7210037,3.01581393 48.6587435,3.16699013 L45.76523,10.1945545 C45.7030037,10.3457449 45.5835838,10.4658832 45.4332485,10.5285331 C45.2829131,10.5911831 45.1139808,10.5912112 44.9636249,10.5286113 C44.8132549,10.4660455 44.6937684,10.3459741 44.6314584,10.1948187 C44.5691483,10.0436632 44.5691204,9.87380928 44.6313806,9.72263308 L47.524894,2.69860367 L47.524894,2.69860367 Z M27.588481,51.0926463 C27.6507073,50.9414559 27.7701272,50.8213176 27.9204626,50.7586677 C28.0707979,50.6960177 28.2397302,50.6959896 28.3900862,50.7585895 C28.5404562,50.8211553 28.6599427,50.9412267 28.7222527,51.0923821 C28.7845627,51.2435376 28.7845907,51.4133915 28.7223304,51.5645677 L25.828817,58.5885971 C25.7665907,58.7397875 25.6471708,58.8599257 25.4968355,58.9225757 C25.3465001,58.9852257 25.1775678,58.9852538 25.0272118,58.9226539 C24.8768418,58.8600881 24.7573554,58.7400167 24.6950453,58.5888612 C24.6327353,58.4377058 24.6327073,58.2678519 24.6949676,58.1166757 L27.588481,51.0926463 Z M63.99999,18.5954634 C64.1503459,18.5328635 64.3192782,18.5328916 64.4696136,18.5955416 C64.6199489,18.6581915 64.7393688,18.7783298 64.8015951,18.9295201 C64.8638554,19.0806963 64.8638274,19.2505503 64.8015174,19.4017057 C64.7392074,19.5528612 64.6197209,19.6729326 64.4693509,19.7354984 L57.4834321,22.6447969 C57.3330761,22.7073968 57.1641438,22.7073687 57.0138085,22.6447187 C56.8634731,22.5820688 56.7440532,22.4619305 56.6818269,22.3107401 C56.6195666,22.1595639 56.6195946,21.98971 56.6819046,21.8385546 C56.7442147,21.6873991 56.8637011,21.5673277 57.0140711,21.5047619 L63.99999,18.5954634 Z M15.8685211,38.6406364 C16.018877,38.5780365 16.1878094,38.5780646 16.3381447,38.6407146 C16.48848,38.7033645 16.6079,38.8235028 16.6701263,38.9746932 C16.7323865,39.1258694 16.7323585,39.2957233 16.6700485,39.4468787 C16.6077385,39.5980342 16.488252,39.7181056 16.337882,39.7806714 L9.35372109,42.6917374 C9.20336513,42.7543373 9.03443282,42.7543092 8.88409748,42.6916592 C8.73376214,42.6290093 8.61434222,42.508871 8.55211591,42.3576806 C8.48985566,42.2065044 8.48988363,42.0366505 8.55219367,41.8854951 C8.61450371,41.7343396 8.73399015,41.6142682 8.88436017,41.5517024 L15.870279,38.6424039 L15.8685211,38.6406364 Z M64.4693509,41.5499349 C64.6197209,41.6125007 64.7392074,41.7325721 64.8015174,41.8837276 C64.8638274,42.034883 64.8638554,42.2047369 64.8015951,42.3559131 C64.7393688,42.5071035 64.6199489,42.6272418 64.4696136,42.6898917 C64.3192782,42.7525417 64.1503459,42.7525698 63.99999,42.6899699 L57.0140711,39.7806714 C56.8637011,39.7181056 56.7442147,39.5980342 56.6819046,39.4468787 C56.6195946,39.2957233 56.6195666,39.1258694 56.6818269,38.9746932 C56.7440532,38.8235028 56.8634731,38.7033645 57.0138085,38.6407146 C57.1641438,38.5780646 57.3330761,38.5780365 57.4834321,38.6406364 L64.4693509,41.5499349 L64.4693509,41.5499349 Z M16.3396399,21.5047619 C16.4900099,21.5673277 16.6094964,21.6873991 16.6718064,21.8385546 C16.7341165,21.98971 16.7341444,22.1595639 16.6718842,22.3107401 C16.6096579,22.4619305 16.4902379,22.5820688 16.3399026,22.6447187 C16.1895673,22.7073687 16.0206349,22.7073968 15.870279,22.6447969 L8.88260226,19.7372659 C8.73223225,19.6747001 8.6127458,19.5546287 8.55043576,19.4034732 C8.48812572,19.2523177 8.48809775,19.0824638 8.55035801,18.9312876 C8.61258432,18.7800973 8.73200424,18.659959 8.88233957,18.5973091 C9.03267491,18.5346591 9.20160723,18.534631 9.35196319,18.5972309 L16.337882,21.5065294 L16.3396399,21.5047619 Z M48.6587435,58.1166757 C48.7210037,58.2678519 48.7209758,58.4377058 48.6586657,58.5888612 C48.5963557,58.7400167 48.4768692,58.8600881 48.3264992,58.9226539 C48.1761433,58.9852538 48.0072109,58.9852257 47.8568756,58.9225757 C47.7065403,58.8599257 47.5871204,58.7397875 47.524894,58.5885971 L44.6296227,51.5645677 C44.5673624,51.4133915 44.5673904,51.2435376 44.6297005,51.0923821 C44.6920105,50.9412267 44.8114969,50.8211553 44.961867,50.7585895 C45.1122229,50.6959896 45.2811552,50.6960177 45.4314906,50.7586677 C45.5818259,50.8213176 45.7012458,50.9414559 45.7634721,51.0926463 L48.6569856,58.1166757 L48.6587435,58.1166757 Z M28.7223304,9.72263308 C28.7843894,9.8742536 28.7838607,10.0444773 28.7208612,10.1957052 C28.6578616,10.346933 28.537575,10.4667214 28.3865704,10.5286113 C28.2362144,10.5912112 28.0672821,10.5911831 27.9169468,10.5285331 C27.7666114,10.4658832 27.6471915,10.3457449 27.5849652,10.1945545 L24.6949676,3.17052512 C24.6315017,3.01916537 24.6306982,2.84860554 24.6927353,2.69664812 C24.7547724,2.54469071 24.8745259,2.42388709 25.0254539,2.36101192 C25.1758099,2.29841201 25.3447422,2.29844013 25.4950775,2.3610901 C25.6454129,2.42374006 25.7648328,2.54387835 25.8270591,2.69506868 L28.7205725,9.71909809 L28.7223304,9.72263308 Z M12.0380437,56.3102947 C11.9229571,56.4262154 11.766743,56.4913564 11.6038409,56.4913564 C11.4409387,56.4913564 11.2847246,56.4262154 11.1696381,56.3102947 C11.0543463,56.1945803 10.9895588,56.037514 10.9895588,55.8737231 C10.9895588,55.7099323 11.0543463,55.552866 11.1696381,55.4371516 L12.8501963,53.7474254 C12.9652829,53.6315046 13.121497,53.5663637 13.2843991,53.5663637 C13.4473013,53.5663637 13.6035154,53.6315046 13.7186019,53.7474254 C13.8338937,53.8631398 13.8986812,54.0202061 13.8986812,54.1839969 C13.8986812,54.3477877 13.8338937,54.504854 13.7186019,54.6205684 L12.0380437,56.3102947 Z M60.498241,7.58926532 C60.3831545,7.70518605 60.2269404,7.77032702 60.0640382,7.77032702 C59.9011361,7.77032702 59.744922,7.70518605 59.6298354,7.58926532 C59.5145436,7.47355092 59.4497561,7.31648462 59.4497561,7.15269378 C59.4497561,6.98890295 59.5145436,6.83183665 59.6298354,6.71612225 L61.3103936,5.026396 C61.4254802,4.91047527 61.5816943,4.8453343 61.7445964,4.8453343 C61.9074986,4.8453343 62.0637127,4.91047527 62.1787993,5.026396 C62.294091,5.1421104 62.3588786,5.2991767 62.3588786,5.46296754 C62.3588786,5.62675837 62.294091,5.78382467 62.1787993,5.89953907 L60.498241,7.58926532 Z M1.22692121,31.38153 C1.06420825,31.3819994 0.907974181,31.3174592 0.792589066,31.2021076 C0.67720395,31.0867559 0.61211964,30.930042 0.611654081,30.7664414 C0.611187187,30.6028408 0.675377235,30.4457544 0.790103007,30.3297398 C0.904828778,30.2137252 1.06069243,30.1482858 1.2234054,30.1478177 L3.59833654,30.1478177 C3.7610495,30.1473483 3.91728357,30.2118885 4.03266869,30.3272402 C4.1480538,30.4425918 4.21313811,30.5993058 4.21360367,30.7629064 C4.21407056,30.926507 4.14988052,31.0835934 4.03515475,31.199608 C3.92042897,31.3156225 3.76456532,31.3810619 3.60185235,31.38153 L1.22692121,31.38153 L1.22692121,31.38153 Z M69.7518587,31.2047804 C69.5891457,31.2052498 69.4329117,31.1407096 69.3175266,31.025358 C69.2021414,30.9100063 69.1370571,30.7532924 69.1365916,30.5896918 C69.1361247,30.4260911 69.2003147,30.2690048 69.3150405,30.1529902 C69.4297663,30.0369756 69.5856299,29.9715362 69.7483429,29.9710681 L72.123274,29.9710681 C72.285987,29.9705987 72.4422211,30.0351389 72.5576062,30.1504906 C72.6729913,30.2658422 72.7380756,30.4225561 72.7385412,30.5861568 C72.7390081,30.7497574 72.674818,30.9068438 72.5600922,31.0228584 C72.4453665,31.1388729 72.2895028,31.2043123 72.1267898,31.2047804 L69.7518587,31.2047804 Z M16.019701,52.2839386 C15.9046144,52.3998593 15.7484004,52.4650003 15.5854982,52.4650003 C15.422596,52.4650003 15.266382,52.3998593 15.1512954,52.2839386 C15.0360036,52.1682242 14.9712161,52.0111579 14.9712161,51.8473671 C14.9712161,51.6835762 15.0360036,51.5265099 15.1512954,51.4107956 L20.4988457,46.03584 C20.6139323,45.9199192 20.7701464,45.8547783 20.9330485,45.8547783 C21.0959507,45.8547783 21.2521648,45.9199192 21.3672513,46.03584 C21.4825431,46.1515544 21.5473307,46.3086207 21.5473307,46.4724115 C21.5473307,46.6362024 21.4825431,46.7932686 21.3672513,46.908983 L16.0161852,52.2857061 L16.019701,52.2839386 Z M52.8583811,15.2513608 C52.7432946,15.3672815 52.5870805,15.4324225 52.4241783,15.4324225 C52.2612762,15.4324225 52.1050621,15.3672815 51.9899755,15.2513608 C51.8746837,15.1356464 51.8098962,14.9785801 51.8098962,14.8147893 C51.8098962,14.6509984 51.8746837,14.4939321 51.9899755,14.3782177 L57.3375259,9.00326218 C57.4526124,8.88734144 57.6088265,8.82220048 57.7717287,8.82220048 C57.9346308,8.82220048 58.0908449,8.88734144 58.2059315,9.00326218 C58.3212233,9.11897657 58.3860108,9.27604287 58.3860108,9.43983371 C58.3860108,9.60362455 58.3212233,9.76069084 58.2059315,9.87640524 L52.8583811,15.2513608 L52.8583811,15.2513608 Z M6.85046281,31.3355751 C6.68774985,31.3360446 6.53151578,31.2715043 6.41613066,31.1561527 C6.30074555,31.040801 6.23566124,30.8840871 6.23519568,30.7204865 C6.23472879,30.5568859 6.29891883,30.3997995 6.41364461,30.2837849 C6.52837038,30.1677703 6.68423403,30.1023309 6.846947,30.1018628 L14.4059432,30.0841879 C14.5686591,30.082302 14.7254546,30.1454902 14.8418309,30.2598496 C14.9582073,30.374209 15.0246298,30.5303702 15.0264841,30.693974 C15.026951,30.8575747 14.9627609,31.014661 14.8480351,31.1306756 C14.7333094,31.2466902 14.5774457,31.3121296 14.4147327,31.3125977 L6.85573653,31.3302726 L6.85046281,31.3355751 Z M58.9460099,31.2118504 C58.783297,31.2123198 58.6270629,31.1477796 58.5116778,31.032428 C58.3962927,30.9170763 58.3312084,30.7603624 58.3307428,30.5967617 C58.3302759,30.4331611 58.394466,30.2760747 58.5091917,30.1600602 C58.6239175,30.0440456 58.7797812,29.9786062 58.9424941,29.9781381 L66.5014903,29.9604632 C66.6642033,29.9599937 66.8204374,30.0245339 66.9358225,30.1398856 C67.0512076,30.2552372 67.1162919,30.4119512 67.1167575,30.5755518 C67.1172244,30.7391524 67.0530343,30.8962388 66.9383085,31.0122534 C66.8235828,31.128268 66.6677191,31.1937073 66.5050062,31.1941754 L58.9460099,31.2118504 Z M37.2903648,60.6335901 C37.2903648,60.7971905 37.2257274,60.9540903 37.1106721,61.0697732 C36.9956168,61.1854562 36.8395683,61.2504462 36.6768555,61.2504462 C36.3380237,61.2504462 36.0633463,60.9742703 36.0633463,60.6335901 L36.0633463,53.0333569 C36.0633463,52.6926767 36.3380237,52.4165008 36.6768555,52.4165008 C36.8395683,52.4165008 36.9956168,52.4814908 37.1106721,52.5971738 C37.2257274,52.7128568 37.2903648,52.8697565 37.2903648,53.0333569 L37.2903648,60.6335901 L37.2903648,60.6335901 Z M37.2903648,8.25384384 C37.2903648,8.41744426 37.2257274,8.57434403 37.1106721,8.69002699 C36.9956168,8.80570996 36.8395683,8.87069997 36.6768555,8.87069997 C36.3380237,8.87069997 36.0633463,8.59452407 36.0633463,8.25384384 L36.0633463,0.65361071 C36.0633463,0.312930476 36.3380237,0.0367545792 36.6768555,0.0367545792 C36.8395683,0.0367545792 36.9956168,0.101744592 37.1106721,0.217427557 C37.2257274,0.333110522 37.2903648,0.490010292 37.2903648,0.65361071 L37.2903648,8.25384384 Z" id="Combined-Shape"></path>
                </g>
            </g>
        </g>
    </g>
</svg>