<?xml version="1.0" encoding="utf-8"?>
<!-- Generator: Adobe Illustrator 16.0.0, SVG Export Plug-In . SVG Version: 6.00 Build 0)  -->
<!DOCTYPE svg PUBLIC "-//W3C//DTD SVG 1.1//EN" "http://www.w3.org/Graphics/SVG/1.1/DTD/svg11.dtd">
<svg version="1.1" id="Layer_1" xmlns="http://www.w3.org/2000/svg" xmlns:xlink="http://www.w3.org/1999/xlink" x="0px" y="0px"
	 width="227.986px" height="44.209px" viewBox="0 0 227.986 44.209" enable-background="new 0 0 227.986 44.209"
	 xml:space="preserve">
<g>
	<path fill="#FFFFFF" d="M36.18,12.602c0.647,0,0.973,0.287,0.973,0.863c0,0.264-0.084,0.553-0.252,0.863l-9,15.553
		c-0.267,0.479-0.666,0.89-1.207,1.226c-0.539,0.336-1.037,0.504-1.494,0.504h-8.639c-0.672,0-1.008-0.289-1.008-0.865
		c0-0.264,0.081-0.551,0.252-0.863l7.989-13.824c0.168-0.313,0.254-0.6,0.254-0.863c0-0.576-0.323-0.865-0.973-0.865
		c-0.479,0-0.981,0.168-1.51,0.506c-0.529,0.336-0.937,0.744-1.224,1.225l-7.991,13.824c-0.267,0.479-0.666,0.888-1.207,1.224
		c-0.539,0.336-1.039,0.504-1.494,0.504H1.008C0.336,31.608,0,31.319,0,30.744c0-0.265,0.084-0.552,0.252-0.863l16.74-28.943
		C17.352,0.313,17.725,0,18.107,0c0.217,0,0.396,0.109,0.541,0.324l4.787,8.137c0.145,0.24,0.217,0.564,0.217,0.973
		c0,0.6-0.146,1.15-0.432,1.654c-0.146,0.24-0.218,0.469-0.218,0.686c0,0.551,0.359,0.828,1.08,0.828H36.18z"/>
	<path fill="#FFFFFF" d="M65.771,12.602c0.647,0,0.973,0.287,0.973,0.863c0,0.264-0.086,0.553-0.252,0.863l-9,15.553
		c-0.266,0.479-0.666,0.89-1.207,1.226c-0.539,0.336-1.037,0.504-1.494,0.504H30.6c-0.672,0-1.009-0.289-1.009-0.865
		c0-0.264,0.084-0.551,0.253-0.863l3.995-6.912c0.287-0.479,0.695-0.889,1.226-1.225c0.526-0.336,1.031-0.504,1.512-0.504h12.096
		c0.482,0,0.988-0.166,1.521-0.502c0.532-0.336,0.94-0.742,1.229-1.221l1.99-3.447c0.152-0.314,0.228-0.604,0.228-0.871
		c0-0.58-0.322-0.871-0.972-0.871c-0.477,0-0.975,0.17-1.498,0.51c-0.522,0.338-0.928,0.75-1.213,1.234l-1.002,1.729
		c-0.266,0.475-0.668,0.879-1.211,1.211c-0.541,0.334-1.039,0.498-1.496,0.498h-8.662c-0.674,0-1.01-0.287-1.01-0.863
		c0-0.264,0.084-0.551,0.252-0.863l2.017-3.457c0.264-0.479,0.666-0.887,1.204-1.223c0.541-0.336,1.052-0.504,1.531-0.504H65.771z
		 M48.412,24.692c0.172-0.313,0.26-0.6,0.26-0.862c0-0.574-0.336-0.861-1.008-0.861c-0.479,0-0.983,0.169-1.512,0.505
		c-0.529,0.336-0.926,0.743-1.189,1.225l-2.016,3.455c-0.168,0.313-0.252,0.6-0.252,0.865c0,0.573,0.324,0.862,0.973,0.862
		c0.48,0,0.99-0.168,1.531-0.504c0.539-0.336,0.941-0.742,1.207-1.224L48.412,24.692z"/>
	<path fill="#FFFFFF" d="M82.727,8.461c0.145,0.24,0.217,0.564,0.217,0.973c0,0.6-0.146,1.15-0.432,1.654L71.639,29.881
		c-0.265,0.479-0.666,0.89-1.205,1.226c-0.541,0.336-1.039,0.504-1.494,0.504h-8.642c-0.672,0-1.008-0.289-1.008-0.865
		c0-0.264,0.084-0.551,0.252-0.863l10.98-19.008l5.76-9.936C76.643,0.313,77.016,0,77.398,0c0.217,0,0.396,0.109,0.541,0.324
		L82.727,8.461z"/>
	<path fill="#FFFFFF" d="M109.619,12.602c0.648,0,0.971,0.287,0.971,0.863c0,0.264-0.084,0.553-0.252,0.863l-9,15.553
		c-0.264,0.479-0.666,0.89-1.205,1.226c-0.541,0.336-1.038,0.504-1.493,0.504H74.447c-0.672,0-1.008-0.289-1.008-0.865
		c0-0.264,0.084-0.551,0.252-0.863l3.996-6.912c0.287-0.479,0.694-0.889,1.223-1.225s1.031-0.504,1.512-0.504H92.52
		c0.481,0,0.987-0.166,1.52-0.502c0.529-0.336,0.939-0.742,1.23-1.221l1.989-3.447c0.15-0.314,0.228-0.604,0.228-0.871
		c0-0.58-0.324-0.871-0.971-0.871c-0.478,0-0.978,0.17-1.498,0.51c-0.523,0.338-0.929,0.75-1.213,1.234l-1.005,1.729
		c-0.264,0.475-0.668,0.879-1.209,1.211c-0.541,0.334-1.041,0.498-1.495,0.498h-8.662c-0.675,0-1.013-0.287-1.013-0.863
		c0-0.264,0.084-0.551,0.252-0.863l2.019-3.457c0.264-0.479,0.666-0.887,1.205-1.223c0.541-0.336,1.051-0.504,1.528-0.504H109.619z
		 M92.26,24.692c0.173-0.313,0.261-0.6,0.261-0.862c0-0.574-0.338-0.861-1.011-0.861c-0.479,0-0.983,0.169-1.512,0.505
		c-0.527,0.336-0.924,0.743-1.188,1.225l-2.017,3.455c-0.168,0.313-0.252,0.6-0.252,0.865c0,0.573,0.324,0.862,0.974,0.862
		c0.479,0,0.989-0.168,1.528-0.504c0.541-0.336,0.943-0.742,1.209-1.224L92.26,24.692z"/>
	<path fill="#FFFFFF" d="M116.531,35.748c-0.168-0.24-0.252-0.563-0.252-0.972c0-0.602,0.145-1.151,0.432-1.655
		c0.146-0.24,0.218-0.47,0.218-0.685c0-0.553-0.351-0.828-1.046-0.828h-12.096c-0.672,0-1.008-0.289-1.008-0.864
		c0-0.265,0.084-0.552,0.252-0.863l9-15.553c0.264-0.479,0.666-0.887,1.205-1.223c0.541-0.336,1.051-0.504,1.531-0.504h8.639
		c0.648,0,0.973,0.287,0.973,0.863c0,0.264-0.084,0.553-0.252,0.863l-7.992,13.824c-0.168,0.313-0.252,0.6-0.252,0.865
		c0,0.573,0.324,0.862,0.974,0.862c0.479,0,0.988-0.168,1.526-0.504c0.539-0.338,0.941-0.746,1.205-1.228l7.992-13.823
		c0.265-0.479,0.666-0.887,1.205-1.223c0.541-0.334,1.051-0.502,1.531-0.502h8.643c0.648,0,0.974,0.287,0.974,0.863
		c0,0.264-0.086,0.553-0.252,0.863l-16.705,28.945c-0.359,0.623-0.744,0.936-1.152,0.936c-0.215,0-0.395-0.107-0.539-0.324
		L116.531,35.748z"/>
	<path fill="#FFFFFF" d="M169.02,12.602c0.646,0,0.971,0.287,0.971,0.863c0,0.264-0.084,0.553-0.252,0.863l-9,15.553
		c-0.264,0.479-0.666,0.89-1.205,1.226c-0.541,0.336-1.039,0.504-1.494,0.504h-24.192c-0.673,0-1.009-0.289-1.009-0.865
		c0-0.264,0.084-0.551,0.252-0.863l3.996-6.912c0.289-0.479,0.697-0.889,1.226-1.225c0.527-0.336,1.03-0.504,1.512-0.504h12.096
		c0.482,0,0.99-0.166,1.521-0.502c0.531-0.336,0.94-0.742,1.231-1.221l1.99-3.447c0.15-0.314,0.228-0.604,0.228-0.871
		c0-0.58-0.324-0.871-0.974-0.871c-0.475,0-0.975,0.17-1.496,0.51c-0.522,0.338-0.928,0.75-1.213,1.234l-1.004,1.729
		c-0.264,0.475-0.668,0.879-1.209,1.211c-0.541,0.334-1.041,0.498-1.498,0.498h-8.662c-0.674,0-1.01-0.287-1.01-0.863
		c0-0.264,0.084-0.551,0.252-0.863l2.016-3.457c0.265-0.479,0.666-0.887,1.207-1.223c0.539-0.336,1.05-0.504,1.529-0.504H169.02z
		 M151.66,24.692c0.172-0.313,0.258-0.6,0.258-0.862c0-0.574-0.336-0.861-1.008-0.861c-0.479,0-0.984,0.169-1.512,0.505
		c-0.528,0.336-0.924,0.743-1.188,1.225l-2.016,3.455c-0.168,0.313-0.252,0.6-0.252,0.865c0,0.573,0.322,0.862,0.971,0.862
		c0.48,0,0.99-0.168,1.531-0.504s0.943-0.742,1.207-1.224L151.66,24.692z"/>
	<path fill="#FFFFFF" d="M185.975,8.461c0.145,0.24,0.217,0.564,0.217,0.973c0,0.6-0.146,1.15-0.433,1.654l-10.872,18.793
		c-0.265,0.479-0.666,0.89-1.205,1.226c-0.541,0.336-1.039,0.504-1.494,0.504h-8.642c-0.672,0-1.008-0.289-1.008-0.865
		c0-0.264,0.084-0.551,0.252-0.863l10.98-19.008l5.76-9.936C179.891,0.313,180.262,0,180.646,0c0.217,0,0.396,0.109,0.541,0.324
		L185.975,8.461z"/>
	<path fill="#FFFFFF" d="M200.123,8.461c0.146,0.24,0.217,0.564,0.217,0.973c0,0.6-0.145,1.15-0.434,1.654l-10.871,18.793
		c-0.264,0.479-0.666,0.89-1.207,1.226c-0.539,0.336-1.037,0.504-1.492,0.504h-8.643c-0.672,0-1.008-0.289-1.008-0.865
		c0-0.264,0.084-0.551,0.252-0.863l10.981-19.008l5.761-9.936C194.039,0.313,194.41,0,194.795,0c0.218,0,0.396,0.109,0.541,0.324
		L200.123,8.461z"/>
	<path fill="#FFFFFF" d="M227.014,12.602c0.647,0,0.973,0.287,0.973,0.863c0,0.264-0.084,0.553-0.252,0.863l-9,15.553
		c-0.264,0.479-0.666,0.89-1.205,1.226c-0.541,0.336-1.039,0.504-1.494,0.504h-24.193c-0.672,0-1.008-0.289-1.008-0.865
		c0-0.264,0.084-0.551,0.252-0.863l3.996-6.912c0.289-0.479,0.695-0.889,1.226-1.225c0.526-0.336,1.03-0.504,1.512-0.504h12.096
		c0.482,0,0.988-0.166,1.521-0.502c0.531-0.336,0.94-0.742,1.231-1.221l1.988-3.447c0.152-0.314,0.229-0.604,0.229-0.871
		c0-0.58-0.324-0.871-0.974-0.871c-0.477,0-0.975,0.17-1.498,0.51c-0.521,0.338-0.926,0.75-1.211,1.234l-1.004,1.729
		c-0.266,0.475-0.668,0.879-1.209,1.211c-0.541,0.334-1.041,0.498-1.498,0.498h-8.662c-0.674,0-1.01-0.287-1.01-0.863
		c0-0.264,0.084-0.551,0.252-0.863l2.016-3.457c0.265-0.479,0.666-0.887,1.207-1.223c0.539-0.336,1.05-0.504,1.529-0.504H227.014z
		 M209.656,24.692c0.172-0.313,0.258-0.6,0.258-0.862c0-0.574-0.336-0.861-1.008-0.861c-0.48,0-0.984,0.169-1.512,0.505
		c-0.528,0.336-0.924,0.743-1.188,1.225l-2.016,3.455c-0.17,0.313-0.254,0.6-0.254,0.865c0,0.573,0.323,0.862,0.973,0.862
		c0.48,0,0.99-0.168,1.531-0.504s0.942-0.742,1.207-1.224L209.656,24.692z"/>
</g>
</svg>
